<?xml version="1.0" encoding="UTF-8" standalone="no"?>
<svg
   xmlns:dc="http://purl.org/dc/elements/1.1/"
   xmlns:cc="http://creativecommons.org/ns#"
   xmlns:rdf="http://www.w3.org/1999/02/22-rdf-syntax-ns#"
   xmlns:svg="http://www.w3.org/2000/svg"
   xmlns="http://www.w3.org/2000/svg"
   xmlns:sodipodi="http://sodipodi.sourceforge.net/DTD/sodipodi-0.dtd"
   xmlns:inkscape="http://www.inkscape.org/namespaces/inkscape"
   width="100%"
   height="100%"
   viewBox="0 0 584 908"
   version="1.1"
   xml:space="preserve"
   style="fill-rule:evenodd;clip-rule:evenodd;stroke-linejoin:round;stroke-miterlimit:2;"
   id="svg4"
   sodipodi:docname="marker_walker_orange.svg"
   inkscape:version="1.0.2-2 (e86c870879, 2021-01-15)"><metadata
   id="metadata10"><rdf:RDF><cc:Work
       rdf:about=""><dc:format>image/svg+xml</dc:format><dc:type
         rdf:resource="http://purl.org/dc/dcmitype/StillImage" /></cc:Work></rdf:RDF></metadata><defs
   id="defs8" /><sodipodi:namedview
   pagecolor="#ffffff"
   bordercolor="#666666"
   borderopacity="1"
   objecttolerance="10"
   gridtolerance="10"
   guidetolerance="10"
   inkscape:pageopacity="0"
   inkscape:pageshadow="2"
   inkscape:window-width="1920"
   inkscape:window-height="1017"
   id="namedview6"
   showgrid="false"
   inkscape:zoom="0.80947137"
   inkscape:cx="292"
   inkscape:cy="454"
   inkscape:window-x="-8"
   inkscape:window-y="-8"
   inkscape:window-maximized="1"
   inkscape:current-layer="svg4" />
    <path
   style="fill:rgb(241,135,62);"
   d="M 291.583,907.671 C 291.388,907.382 0,476.351 0,291.583 0,130.654 130.654,0 291.583,0 c 160.934,0 291.588,130.654 291.588,291.583 0,184.768 -291.393,615.799 -291.588,616.088 z"
   id="path2" />
<path
   style="fill:#ffffff;fill-opacity:1"
   d="m 332.65,558.576 c 0,-10e-4 0,-10e-4 -10e-4,0 z"
   id="path839" /><path
   style="fill:#ffffff;fill-opacity:1"
   d="m 332.65,558.576 c 0,0.021 -0.24,0.616 -0.367,1.338 -0.13,0.756 -0.222,1.69 -0.285,2.587 -0.085,1.282 -0.081,1.859 -0.091,2.45 l 19.443,1.808 c 0,0 0.252,0.045 0.904,-0.154 0.654,-0.195 1.603,-0.642 2.684,-1.723 1.386,-1.408 1.935,-2.123 2.902,-3.857 0.514,-8.658 0.378,-13.619 0.079,-16.658 -0.303,-3.061 -0.772,-4.245 -0.904,-5.836 -0.766,-5.871 -0.561,-13.253 -0.561,-13.253 l 0.012,-0.132 c 1.225,-8.171 5.46,-14.255 10.741,-20.268 l 0.35,-0.39 5.001,0.178 -0.842,1.557 c -3.027,5.619 -5.167,10.774 -5.167,17.51 0,3.639 1.78,8.206 1.797,8.24 1.739,3.404 3.736,8.057 5.825,10.855 l -0.022,-0.028 c 1.378,1.727 1.819,4.194 1.768,6.85 -0.057,2.654 -0.642,5.521 -1.62,8.079 -0.252,0.658 -0.739,1.041 -1.207,1.317 -0.465,0.274 -0.956,0.457 -1.414,0.589 -0.447,0.132 -0.526,0.12 -0.847,0.177 -0.057,0.486 -0.149,1.093 -0.189,2.221 -0.029,0.76 -0.023,1.533 0.052,2.087 0.035,0.276 0.086,0.498 0.126,0.607 0.011,0.029 0.011,0.023 0.017,0.029 -0.035,-0.029 0.292,0.16 0.778,0.297 0.492,0.138 1.162,0.282 1.934,0.402 1.551,0.246 3.532,0.433 5.546,0.537 2.008,0.109 4.062,0.132 5.767,0.057 1.677,-0.074 3.05,-0.303 3.479,-0.474 1.786,-0.996 3.245,-2.713 4.875,-4.848 l 0.041,-0.057 0.046,-0.045 c 1.361,-1.402 1.859,-1.998 2.042,-2.764 0.183,-0.766 0.057,-2.066 -0.297,-4.681 -0.355,-2.626 -2.02,-7.113 -2.793,-9.437 -1.768,-5.298 -3.268,-12.119 -1.986,-16.76 1.203,-4.361 5.757,-15.399 7.943,-20.343 l 0.275,-0.624 0.687,-0.028 c 1.894,-0.074 4.029,-0.234 5.819,-0.474 1.534,-0.213 2.547,-0.539 3.062,-0.744 -0.395,-13.533 -1.477,-28.56 -3.513,-41.927 l 2.008,-0.762 c 4.801,7.49 7.502,17.962 10.621,27.067 0.663,0.126 4.944,0.961 8.309,1.339 l 0.978,0.108 v 11.926 c 2.255,0.034 3.993,-0.236 5.596,-0.894 1.733,-0.72 3.57,-1.945 5.917,-3.455 0.012,-0.15 0.023,-0.241 0.028,-0.544 0.017,-0.967 -0.028,-2.821 -0.274,-6.186 -2.77,-30.499 -15.628,-64.027 -43.066,-83.287 -0.698,-0.309 -1.191,-0.796 -1.545,-1.203 -0.39,-0.451 -0.636,-0.858 -0.636,-0.858 l -0.177,-0.304 0.464,-6.362 0.818,-0.167 c 4.835,-0.961 8.692,-2.008 13.235,-3.672 -0.022,-0.573 -0.102,-2.428 -0.102,-6.061 0,-4.989 0.927,-7.805 1.029,-8.092 1.363,-5.389 -0.08,-10.883 -3.512,-16.09 -8.246,-8.018 -17.946,-11.21 -31.387,-7.76 -5.671,1.579 -10.759,7.187 -13.242,13.036 -3.353,11.135 0.949,19.489 4.629,22.957 l 0.544,0.51 -0.274,0.693 c 0,0 -1.191,3.107 -2.203,4.823 -1.014,1.717 -3.308,4.509 -3.308,4.509 l -0.607,0.751 -0.824,-0.504 c -3.416,-2.117 -7.634,-5.958 -10.517,-10.845 -4.818,-8.171 -7.606,-18.735 -10.008,-26.568 l -0.041,-0.143 -0.006,-0.154 c -0.079,-3.623 -0.376,-7.131 -1.247,-9.882 -0.87,-2.747 -2.226,-4.665 -4.498,-5.546 l -0.229,-0.091 -0.16,-0.172 c 0,0 -2.935,-3.028 -3.668,-7.81 -1.425,-9.3 -3.41,-19.771 -8.669,-57.545 -2.65,-17.733 -5.865,-35.678 -11.044,-58.659 v -0.016 l -0.006,-0.018 c -2.672,-14.111 -4.229,-21.802 -5.344,-26.266 -1.122,-4.463 -1.728,-5.556 -2.679,-6.895 -0.457,-0.64 -2.105,-1.859 -3.57,-2.735 -1.459,-0.87 -2.729,-1.493 -2.753,-1.498 l -31.015,-11.846 v -10.374 l 1.111,0.012 c 11.869,0.102 21.962,-5.541 23.106,-6.193 -4.086,-9.167 -2.306,-17.533 -0.412,-25.293 1.969,-8.067 3.875,-15.478 -0.331,-23.403 l -0.006,-0.012 -0.006,-0.005 c -5.871,-11.651 -17.064,-15.868 -29.069,-16.447 -0.561,-0.01 -1.122,-0.01 -1.682,-0.004 -8.417,0.142 -16.669,2.54 -22.706,7.192 -6.444,4.972 -10.443,12.434 -9.671,22.878 v 0.011 l 0.006,0.012 c 0.114,2.192 0.315,5.149 0.24,8.016 -0.081,2.873 -0.372,5.655 -1.516,7.691 l -0.04,0.075 -0.058,0.068 c -2.667,3.387 -4.915,5.905 -5.522,6.593 4.36,4.605 10.993,9.429 16.955,12.943 l 0.573,0.337 -0.453,10.107 -37.079,15.638 c 0,0 -0.006,0 -0.006,0.005 -2.792,1.288 -4.527,2.747 -5.998,6.97 l -0.005,0.012 L 146,332.838 c 0.738,0.497 2.438,1.591 4.91,2.54 l 0.824,0.315 -0.131,0.875 c -0.206,1.368 -0.95,3.079 -1.638,4.589 -0.663,1.465 -1.252,2.593 -1.292,2.668 v 0.006 c -2.37,5.71 -1.344,14.625 -0.521,21.269 1.258,3.038 2.587,4.526 4.727,6.334 4.903,0.726 9.459,-0.652 12.984,-2.575 l 0.693,-13.482 c -0.351,-0.274 -0.745,-0.514 -1.254,-0.784 -0.321,-0.165 -0.67,-0.342 -1.001,-0.744 -0.332,-0.4 -0.486,-1.138 -0.309,-1.687 -0.012,0.033 0.085,-0.418 0.148,-0.904 0.063,-0.487 0.132,-1.087 0.195,-1.666 0.12,-1.15 0.212,-2.221 0.212,-2.221 l 0.073,-0.868 5.334,-0.762 c 8.069,-23.421 15.971,-45.475 27.181,-77.325 1.946,-7.37 3.113,-10.678 3.113,-10.678 l 2.135,0.384 -0.402,27.845 v 0.016 c 0,3.977 -0.309,8.384 -0.858,10.375 -2.741,12.967 -5.734,24.165 -9.047,38.351 -0.623,3.152 -1.826,11.788 -2.259,24.966 v 0.006 c -0.453,13.544 -1.404,35.335 -1.431,49.864 l 6.615,1.522 -0.362,10.855 v 0.012 c 0.03,11.484 0.315,23.645 1.528,37.526 1.036,11.576 1.855,24.577 3.097,38.786 l 0.006,0.016 c 1.762,17.522 2.637,32.132 3.564,51.022 l 0.057,1.16 -15.89,-0.136 c -0.11,0.262 -0.224,0.646 -0.326,1.081 -0.213,0.876 -0.355,1.957 -0.355,2.66 0,1.11 0.132,1.821 0.549,2.644 0.412,0.825 1.168,1.792 2.45,3.148 0.88,0.938 1.774,1.79 2.471,2.391 0.355,0.297 0.664,0.539 0.87,0.675 0.075,0.052 0.109,0.069 0.148,0.093 h 0.183 l 0.299,0.222 c 2.7,2.066 4.824,4.521 7.313,6.787 h 0.148 l 0.321,0.469 c 0.903,1.333 1.321,1.819 1.876,2.065 0.561,0.247 1.597,0.333 3.709,0.339 2.529,0 4.996,-0.292 6.986,-0.772 1.993,-0.482 3.515,-1.219 4.058,-1.764 0.022,-0.028 0.412,-0.811 0.595,-2.631 0.183,-1.821 0.274,-4.619 0.297,-8.726 0.058,-8.831 1.15,-19.583 2.18,-29.213 1.924,-20.023 4.682,-38.706 6.244,-58.51 v -0.024 c 1.87,-19.004 2.266,-34.213 1.185,-43.878 -0.293,-2.593 -0.613,-4.989 -0.843,-6.763 -0.114,-0.888 -0.205,-1.621 -0.262,-2.152 -0.029,-0.27 -0.051,-0.487 -0.057,-0.67 -0.006,-0.092 -0.012,-0.171 -0.006,-0.28 0.006,-0.052 0.006,-0.115 0.028,-0.218 0.018,-0.102 -0.006,-0.264 0.309,-0.577 l 0.333,-0.339 16.417,0.544 -0.087,1.15 c 0,0 -1.12,14.42 -1.762,22.466 v 0.011 c -2.455,25.276 -0.223,55.273 0.526,81.761 v 0.01 c 0.161,7.594 0.11,11.83 -0.067,14.502 -0.178,2.677 -0.504,3.851 -0.813,5.029 -0.624,2.392 -1.408,4.63 -2.478,6.953 -0.818,2.993 -1.311,5.195 -1.013,6.455 0.155,0.64 0.429,1.075 1.059,1.534 0.634,0.451 1.67,0.88 3.209,1.213 h 0.006 c 4.665,0.984 9.831,3.049 14.181,7.078 l 0.005,0.006 0.006,0.012 c 3.015,2.872 5.441,3.404 9.16,2.065 3.698,-1.329 6.988,-2.821 10.02,-4.127 l -0.028,-2.488 c -0.051,-1.796 -0.303,-3.045 -0.669,-3.863 -0.366,-0.818 -0.801,-1.229 -1.465,-1.544 -1.327,-0.642 -3.812,-0.63 -7.256,-0.642 l -0.377,-0.006 -0.298,-0.234 c 0,0 -4.796,-3.623 -6.478,-8.046 l -0.098,-0.263 0.035,-0.274 c 4.498,-34.518 8.469,-60.857 12.795,-94.246 0.744,-14.764 -0.154,-26.455 -0.721,-34.987 l -0.063,-0.945 0.927,-0.199 c 7.175,-1.557 14.301,-2.713 21.064,-6.054 -0.114,-0.624 -0.224,-1.242 -0.441,-2.66 -0.291,-1.906 -0.675,-4.47 -1.128,-7.537 -0.904,-6.134 -2.075,-14.254 -3.318,-22.958 -2.489,-17.408 -5.259,-37.149 -6.729,-48.033 -2.633,-19.53 -4.218,-25.693 -3.708,-66.51 l 2.146,-0.315 c 6.74,21.367 16.394,63.271 24.142,92.667 2.506,0.607 5.722,1.55 5.722,1.55 l 0.779,0.24 v 0.819 c -0.024,4.178 0.772,8.526 0.795,8.64 0.263,0.9 1.459,2.392 3.015,3.692 1.563,1.305 3.451,2.471 4.853,3.101 l 0.613,0.275 0.468,8.412 c 2.713,19.833 8.024,36.754 24.933,52.175 l 0.571,0.52 -0.297,0.711 c -7.748,18.528 -13.607,36.004 -18.094,58.98 5.837,2.276 13.831,6.299 13.831,6.299 l 1.15,0.585 -0.76,1.041 c -4.103,5.614 -8.429,11.06 -8.407,18.3 0.108,7.118 2.575,10.299 4.985,16.915 l 0.039,0.126 c 1.231,5.31 1.546,14.706 0.109,19.65 l -0.189,0.64 -0.652,0.132 c 0,0 -1.179,0.235 -2.467,0.624 -0.64,0.201 -1.304,0.435 -1.831,0.676 -0.52,0.246 -0.886,0.543 -0.916,0.583 z"
   id="path837" /></svg>
